<?xml version="1.0" encoding="UTF-8" ?>
<!DOCTYPE svg PUBLIC "-//W3C//DTD SVG 1.1//EN" "http://www.w3.org/Graphics/SVG/1.1/DTD/svg11.dtd">
<svg width="889pt" height="828pt" viewBox="0 0 889 828" version="1.1" xmlns="http://www.w3.org/2000/svg">
<g id="#231f20ff">
<path fill="#231f20" opacity="1.00" d=" M 226.80 54.51 C 235.37 56.27 244.19 54.93 252.75 56.70 C 250.18 63.16 246.76 69.23 243.55 75.39 C 234.74 75.76 226.02 74.70 217.25 74.28 C 220.02 67.50 223.32 60.95 226.80 54.51 Z" />
<path fill="#231f20" opacity="1.00" d=" M 268.65 93.26 C 274.44 93.28 280.24 93.36 285.98 94.22 C 291.30 94.51 296.67 94.39 301.92 95.52 C 301.78 97.57 301.81 99.72 300.88 101.61 C 298.52 106.73 295.77 111.66 293.27 116.72 C 282.41 117.05 271.68 115.22 260.88 114.37 C 257.78 113.70 259.91 110.79 260.66 108.99 C 263.50 103.84 266.13 98.57 268.65 93.26 Z" />
<path fill="#231f20" opacity="1.00" d=" M 198.56 117.59 C 204.38 117.57 210.21 117.59 216.03 117.71 C 217.56 117.65 219.02 118.30 220.17 119.30 C 217.96 124.84 214.92 130.00 212.22 135.31 C 204.93 135.37 197.54 135.89 190.36 134.33 C 192.73 128.58 195.56 123.04 198.56 117.59 M 192.00 134.40 C 198.30 134.37 204.65 134.96 210.94 134.35 C 214.70 130.16 216.32 124.56 218.44 119.45 C 212.02 117.87 205.37 118.54 198.83 118.43 C 196.11 123.54 192.76 128.53 192.00 134.40 Z" />
<path fill="#231f20" opacity="1.00" d=" M 306.55 134.71 C 310.06 134.40 313.61 134.37 317.11 134.92 C 322.08 135.72 327.14 135.15 332.13 135.77 C 338.77 136.86 345.70 135.98 352.10 138.44 C 349.09 145.35 345.49 151.98 342.48 158.89 C 341.38 160.93 340.30 164.25 337.35 163.57 C 323.40 162.31 309.36 161.56 295.50 159.62 C 298.17 150.89 303.26 143.19 306.55 134.71 Z" />
<path fill="#231f20" opacity="1.00" d=" M 241.61 157.71 C 246.17 157.05 250.76 157.93 255.30 158.40 C 260.07 158.77 264.86 158.75 269.64 158.89 C 268.47 164.13 265.57 168.69 263.35 173.51 C 262.19 175.84 261.20 178.33 259.39 180.25 C 253.57 181.01 247.83 179.37 242.01 179.39 C 239.16 179.25 236.16 179.52 233.48 178.33 C 231.18 177.59 232.99 174.78 233.48 173.26 C 236.25 168.12 238.17 162.45 241.61 157.71 M 232.84 177.39 C 241.64 178.27 250.43 179.43 259.29 179.69 C 262.97 173.63 266.05 167.21 268.74 160.65 C 259.77 159.25 250.68 158.96 241.64 158.22 C 238.29 164.40 235.05 170.70 232.84 177.39 Z" />
<path fill="#231f20" opacity="1.00" d=" M 356.79 163.27 C 375.68 162.66 394.37 166.06 413.22 166.42 C 412.71 172.57 408.91 177.61 406.47 183.08 C 403.53 188.77 401.08 194.71 398.12 200.39 C 394.58 200.96 390.97 200.65 387.41 200.49 C 376.30 199.33 365.12 198.99 354.01 197.70 C 350.24 197.53 346.44 197.48 342.77 196.50 C 343.16 194.24 343.42 191.91 344.44 189.82 C 348.64 181.01 352.98 172.26 356.79 163.27 Z" />
<path fill="#231f20" opacity="1.00" d=" M 167.63 180.65 C 174.86 180.85 182.29 179.75 189.34 181.81 C 186.37 187.07 184.90 193.19 181.21 198.00 C 174.04 199.00 166.54 198.56 159.35 197.50 C 161.94 191.80 164.70 186.18 167.63 180.65 M 160.85 196.51 C 167.21 198.19 173.84 197.45 180.34 197.66 C 183.13 192.46 185.95 187.23 187.83 181.62 C 181.17 181.38 174.50 181.40 167.83 181.47 C 165.39 186.43 162.90 191.37 160.85 196.51 Z" />
<path fill="#231f20" opacity="1.00" d=" M 414.84 193.44 C 416.13 191.22 417.29 187.91 420.23 187.63 C 433.80 188.92 447.41 190.05 461.03 190.90 C 468.48 192.10 476.16 190.98 483.49 193.11 C 477.21 206.93 470.01 220.31 463.66 234.09 C 462.64 235.97 461.76 238.40 459.57 239.16 C 446.10 238.00 432.63 236.93 419.15 236.00 C 411.27 234.74 403.09 236.16 395.41 233.63 C 401.79 220.19 408.48 206.90 414.84 193.44 Z" />
<path fill="#231f20" opacity="1.00" d=" M 489.15 202.79 C 495.07 202.06 501.02 201.41 507.00 201.49 C 519.68 201.50 532.38 201.19 545.05 201.75 C 549.68 202.55 554.47 202.16 559.00 203.60 C 549.70 224.21 538.54 243.93 529.33 264.59 C 519.18 265.06 509.15 263.43 499.02 263.30 C 493.38 262.29 487.64 262.71 481.97 262.14 C 475.02 260.92 467.87 262.15 461.01 260.31 C 462.59 254.98 465.50 250.20 467.86 245.19 C 473.77 232.82 480.07 220.64 485.87 208.22 C 486.80 206.32 487.69 204.35 489.15 202.79 Z" />
<path fill="#231f20" opacity="1.00" d=" M 567.74 204.30 C 577.23 203.87 586.67 205.10 596.08 206.09 C 618.90 208.97 641.37 213.98 663.57 219.90 C 674.20 222.67 684.66 226.08 695.04 229.67 C 707.30 234.81 719.95 238.99 731.92 244.81 C 747.35 251.84 761.59 261.08 776.09 269.78 C 782.76 274.81 790.07 278.96 796.39 284.46 C 811.14 295.61 824.46 308.52 837.00 322.08 C 845.65 331.77 854.42 341.53 860.84 352.90 C 790.94 495.30 721.24 637.79 651.48 780.26 C 649.24 784.73 647.49 789.56 644.11 793.35 C 622.58 759.60 592.59 731.88 559.35 709.89 C 551.57 705.49 543.70 701.27 536.07 696.63 C 522.67 688.67 508.51 682.03 493.99 676.39 C 449.30 657.68 401.49 647.66 353.63 641.17 C 362.40 622.79 371.37 604.50 380.40 586.25 C 381.21 585.31 381.60 583.24 383.13 583.45 C 397.11 584.18 410.89 586.81 424.70 588.99 C 445.03 592.79 465.23 597.45 484.98 603.63 C 488.52 604.64 492.13 605.39 495.77 605.94 C 499.92 598.91 502.99 591.34 506.16 583.84 C 514.85 565.78 522.30 547.16 530.04 528.68 C 538.48 510.41 547.37 492.35 556.52 474.43 C 558.96 469.80 560.84 464.89 562.17 459.83 C 535.33 450.85 507.11 447.04 479.00 444.65 C 469.33 444.34 459.55 442.25 449.94 444.34 L 449.33 444.45 C 452.89 439.23 455.30 433.36 458.10 427.73 C 475.85 390.09 494.66 352.97 512.87 315.55 C 521.14 298.48 529.77 281.60 537.92 264.48 C 539.66 261.27 542.16 258.53 543.66 255.17 C 551.47 238.12 560.26 221.51 567.74 204.30 M 540.19 262.83 C 538.16 265.89 536.94 269.38 535.33 272.65 C 517.46 308.72 499.46 344.73 481.60 380.80 C 478.46 387.26 474.82 393.51 472.47 400.33 C 479.49 400.32 486.43 401.37 493.43 401.59 C 502.95 402.88 512.60 403.19 522.03 405.10 C 538.16 407.63 554.30 410.61 569.84 415.76 C 575.55 417.50 581.24 419.85 587.33 419.60 C 599.95 395.40 611.31 370.59 622.80 345.85 C 625.59 338.80 627.38 331.38 630.52 324.46 C 634.14 316.43 637.66 308.34 641.58 300.44 C 644.98 293.37 649.25 286.58 650.80 278.77 C 620.44 270.38 589.20 264.96 557.77 263.04 C 551.96 262.52 545.98 261.88 540.19 262.83 M 693.97 292.51 C 689.88 298.34 687.54 305.17 684.15 311.40 C 665.62 349.52 646.74 387.47 628.36 425.67 C 626.09 430.09 623.76 434.50 622.02 439.17 C 635.94 445.92 650.29 452.07 662.96 461.10 C 678.66 470.60 693.45 481.61 706.90 494.09 C 711.67 498.47 715.70 503.65 721.01 507.42 C 732.19 484.99 742.85 462.29 754.17 439.92 C 763.93 418.87 774.87 398.38 784.61 377.32 C 786.53 373.14 789.13 369.27 790.59 364.89 C 791.24 362.85 789.56 361.12 788.59 359.53 C 776.97 344.15 762.42 331.22 746.69 320.19 C 742.60 317.61 738.48 315.09 734.50 312.36 C 725.93 306.50 716.49 302.11 707.15 297.65 C 702.83 295.78 698.63 293.41 693.97 292.51 M 603.45 474.16 C 588.97 502.84 575.54 532.04 561.01 560.69 C 550.52 582.15 540.14 603.68 529.58 625.11 C 533.09 627.79 537.04 629.80 541.00 631.72 C 552.17 637.69 563.63 643.09 574.70 649.25 C 582.42 653.27 589.22 658.77 596.61 663.33 C 603.90 668.68 611.24 674.01 618.01 680.02 C 622.62 684.16 626.63 689.17 632.29 691.93 C 656.45 643.02 680.44 594.02 704.44 545.03 C 691.61 528.74 675.90 514.85 658.69 503.34 C 654.04 499.94 649.31 496.61 644.14 494.04 C 635.20 489.49 626.76 483.94 617.47 480.08 C 612.81 478.08 608.23 475.87 603.45 474.16 Z" />
<path fill="#231f20" opacity="1.00" d=" M 210.52 220.64 C 219.95 220.15 229.38 221.68 238.75 222.70 C 236.20 229.56 232.58 235.93 229.59 242.59 C 219.87 242.46 210.10 242.87 200.48 241.31 C 203.86 234.45 206.43 227.12 210.52 220.64 M 210.64 221.21 C 207.36 227.38 204.28 233.70 202.12 240.36 C 210.98 242.38 220.14 241.35 229.14 241.87 C 232.06 235.89 235.48 230.07 237.25 223.60 C 228.43 222.40 219.56 221.30 210.64 221.21 Z" />
<path fill="#231f20" opacity="1.00" d=" M 134.14 243.24 C 142.80 243.67 151.41 244.55 160.09 244.50 C 158.06 250.93 154.79 256.91 151.48 262.77 C 142.76 262.95 134.13 261.68 125.43 261.45 C 128.09 255.27 131.25 249.32 134.14 243.24 Z" />
<path fill="#231f20" opacity="1.00" d=" M 391.23 255.52 C 397.05 257.06 403.11 256.15 409.00 257.04 C 413.96 257.76 419.00 257.37 423.95 258.23 C 431.17 259.32 438.91 257.40 445.70 260.70 C 439.36 273.64 433.19 286.67 426.54 299.45 C 418.01 299.08 409.56 297.67 401.03 297.35 C 391.46 296.60 381.95 295.27 372.34 295.17 C 374.11 289.07 377.40 283.60 380.10 277.89 C 383.86 270.46 387.31 262.87 391.23 255.52 M 378.36 282.52 C 376.64 286.24 374.08 289.82 374.08 294.07 C 382.68 295.38 391.41 295.42 400.06 296.39 C 408.08 296.67 416.02 298.00 424.02 298.49 C 426.90 299.00 427.64 295.52 428.86 293.63 C 433.83 282.58 439.85 272.02 444.65 260.91 C 436.71 258.40 428.25 260.20 420.13 258.86 C 410.63 258.14 401.08 257.71 391.64 256.33 C 386.71 264.79 382.86 273.83 378.36 282.52 Z" />
<path fill="#231f20" opacity="1.00" d=" M 456.99 268.34 C 465.75 268.14 474.39 269.67 483.15 269.65 C 491.52 271.04 500.05 270.08 508.42 271.40 C 514.14 272.26 520.52 270.26 525.62 273.66 C 518.03 288.30 510.81 303.14 503.64 317.99 C 501.97 320.96 501.20 326.15 496.76 325.78 C 489.87 325.34 482.96 325.37 476.06 325.19 C 471.08 324.29 466.01 324.45 460.98 324.25 C 450.79 322.98 440.42 323.45 430.30 321.66 C 439.16 303.88 447.18 285.64 456.99 268.34 Z" />
<path fill="#231f20" opacity="1.00" d=" M 173.39 285.91 C 174.21 284.30 175.15 282.05 177.35 282.27 C 188.53 282.52 199.61 284.30 210.78 284.80 C 207.93 292.78 203.76 300.23 199.47 307.51 C 193.48 306.35 187.35 306.64 181.33 305.73 C 175.76 305.02 169.81 306.14 164.69 303.30 C 167.93 297.68 170.62 291.77 173.39 285.91 Z" />
<path fill="#231f20" opacity="1.00" d=" M 301.53 289.69 C 305.18 289.21 308.79 290.20 312.42 290.41 C 324.60 290.92 336.69 292.63 348.89 292.71 C 346.28 302.12 340.71 310.36 337.15 319.42 C 335.73 321.76 334.89 326.25 331.33 325.67 C 323.85 325.57 316.45 324.33 308.97 324.22 C 301.13 322.65 292.90 324.49 285.26 321.84 C 288.80 313.33 293.24 305.24 297.09 296.88 C 298.39 294.39 299.30 291.52 301.53 289.69 M 302.02 290.52 C 298.74 293.47 297.48 297.90 295.51 301.71 C 292.63 308.34 288.57 314.47 286.74 321.52 C 296.54 321.80 306.24 323.45 316.04 323.69 C 321.70 324.17 327.37 325.06 333.06 324.60 C 335.88 321.55 337.16 317.48 339.02 313.84 C 342.01 307.08 346.07 300.76 348.07 293.59 C 332.69 293.11 317.37 291.22 302.02 290.52 Z" />
<path fill="#231f20" opacity="1.00" d=" M 104.52 309.28 C 105.63 306.93 108.67 306.76 110.93 306.88 C 116.51 307.78 122.36 306.95 127.71 309.12 C 124.92 314.41 123.11 320.38 119.28 325.03 C 116.56 325.65 113.72 325.31 110.96 325.33 C 106.38 325.15 101.48 325.93 97.31 323.55 C 99.88 318.87 101.91 313.92 104.52 309.28 M 105.77 308.38 C 103.24 313.30 100.64 318.21 98.92 323.48 C 105.29 323.36 111.60 324.98 117.96 324.35 C 121.71 320.18 123.49 314.67 125.33 309.48 C 118.93 307.84 112.30 308.38 105.77 308.38 Z" />
<path fill="#231f20" opacity="1.00" d=" M 361.45 316.61 C 366.56 315.89 371.73 317.06 376.84 317.40 C 389.85 317.80 402.77 319.57 415.80 319.75 C 415.14 322.64 414.17 325.45 412.83 328.09 C 408.31 337.04 404.13 346.15 399.81 355.20 C 398.75 357.10 397.75 359.95 395.03 359.45 C 377.71 358.28 360.40 356.57 343.07 355.29 C 345.26 346.81 350.27 339.44 353.72 331.46 C 356.37 326.57 357.79 320.88 361.45 316.61 M 361.66 317.26 C 357.64 323.98 354.58 331.22 351.06 338.21 C 348.50 343.52 345.47 348.66 343.91 354.40 C 356.95 355.37 369.94 356.86 382.99 357.61 C 387.33 357.85 391.63 358.87 396.00 358.50 C 400.18 354.39 401.82 348.50 404.53 343.43 C 407.82 335.73 412.40 328.58 415.03 320.61 C 397.22 319.84 379.49 317.65 361.66 317.26 Z" />
<path fill="#231f20" opacity="1.00" d=" M 213.81 323.98 C 218.40 322.85 223.10 324.55 227.74 324.53 C 233.19 324.46 238.58 325.27 243.97 325.90 C 249.28 326.82 254.77 326.01 259.98 327.65 C 257.04 334.62 253.29 341.21 250.09 348.05 C 248.88 350.46 247.25 353.66 244.07 353.43 C 234.41 352.46 224.72 351.73 215.03 351.18 C 210.69 350.55 206.24 350.69 202.03 349.34 C 203.97 343.21 207.37 337.71 209.81 331.79 C 211.04 329.14 211.95 326.27 213.81 323.98 Z" />
<path fill="#231f20" opacity="1.00" d=" M 426.45 330.18 C 435.81 330.12 445.07 331.50 454.42 331.58 C 462.22 332.85 470.16 331.90 477.97 333.12 C 483.61 333.88 489.49 332.53 494.96 334.55 C 489.21 345.83 483.66 357.21 478.06 368.57 C 474.92 374.88 472.53 381.59 468.74 387.57 C 459.12 387.92 449.62 386.26 440.01 386.36 C 431.71 385.11 423.30 385.68 414.96 385.20 C 410.04 384.49 405.08 384.39 400.13 384.25 C 400.80 381.79 401.69 379.40 402.86 377.14 C 408.05 366.94 413.00 356.62 418.08 346.37 C 420.81 340.94 423.16 335.30 426.45 330.18 Z" />
<path fill="#231f20" opacity="1.00" d=" M 138.41 368.19 C 141.32 360.71 145.14 353.63 148.87 346.53 C 154.80 347.96 160.96 347.15 166.95 348.16 C 170.16 348.57 173.41 348.63 176.65 348.88 C 174.99 355.00 171.89 360.58 169.06 366.22 C 168.21 367.43 167.63 369.44 165.88 369.51 C 156.68 370.09 147.59 368.13 138.41 368.19 M 148.89 347.33 C 145.78 353.94 141.70 360.19 139.93 367.34 C 149.04 367.53 158.07 369.13 167.20 368.65 C 170.17 362.65 173.29 356.71 175.86 350.52 C 167.05 348.21 157.85 348.66 148.89 347.33 Z" />
<path fill="#231f20" opacity="1.00" d=" M 265.40 351.35 C 274.73 352.71 284.17 352.41 293.53 353.46 C 299.02 353.57 304.44 354.80 309.95 354.62 C 314.20 354.49 318.49 354.89 322.51 356.36 C 318.03 365.97 313.10 375.37 308.58 384.96 C 307.31 387.28 306.25 390.22 303.59 391.25 C 285.17 389.95 266.76 387.87 248.29 387.18 C 249.06 382.21 251.74 377.89 253.93 373.46 C 257.81 366.12 260.88 358.34 265.40 351.35 Z" />
<path fill="#231f20" opacity="1.00" d=" M 74.77 370.72 C 82.01 370.90 89.51 369.82 96.46 372.39 C 93.62 377.57 91.84 383.40 88.16 388.07 C 81.00 389.28 73.55 388.14 66.29 388.30 C 68.59 382.20 71.75 376.48 74.77 370.72 M 67.92 387.43 C 74.38 387.72 80.84 387.69 87.31 387.74 C 89.74 383.22 92.57 378.83 94.13 373.91 C 94.13 371.69 91.61 371.96 90.05 371.71 C 85.10 371.56 80.09 371.16 75.17 371.85 C 71.72 376.46 69.44 381.90 67.92 387.43 Z" />
<path fill="#231f20" opacity="1.00" d=" M 324.87 377.41 C 334.30 377.18 343.62 378.92 353.02 379.39 C 359.46 379.51 365.82 380.59 372.27 380.68 C 377.92 381.67 383.74 380.97 389.32 382.48 C 388.60 385.10 387.78 387.71 386.52 390.13 C 380.34 402.26 374.41 414.53 368.42 426.75 C 361.26 426.79 354.09 426.71 347.00 425.70 C 332.88 425.28 318.87 423.04 304.76 422.67 C 304.11 418.87 306.89 415.78 308.26 412.48 C 313.70 400.74 320.14 389.47 324.87 377.41 Z" />
<path fill="#231f20" opacity="1.00" d=" M 187.03 388.96 C 189.95 388.15 193.04 388.68 195.99 389.08 C 199.91 389.71 203.90 389.48 207.85 389.82 C 214.09 390.76 220.47 390.27 226.64 391.80 C 223.30 399.88 219.22 407.65 215.16 415.39 C 202.23 414.65 189.34 413.00 176.36 413.12 C 177.02 407.67 180.19 403.08 182.43 398.21 C 183.97 395.13 185.20 391.89 187.03 388.96 M 177.84 411.36 C 182.22 411.75 186.58 412.45 190.98 412.56 C 198.77 412.71 206.58 414.54 214.37 413.50 C 218.73 406.99 221.54 399.52 225.13 392.56 C 220.21 390.98 215.02 391.52 209.95 391.28 C 202.50 390.75 195.10 389.66 187.64 389.25 C 183.96 396.40 179.49 403.39 177.84 411.36 Z" />
<path fill="#231f20" opacity="1.00" d=" M 395.75 392.26 C 413.37 391.77 430.84 394.38 448.44 394.53 C 453.56 395.08 458.70 395.52 463.87 395.51 C 463.22 398.05 462.39 400.55 461.26 402.93 C 453.77 418.08 446.36 433.29 439.30 448.65 C 429.58 449.00 419.99 447.23 410.27 447.45 C 402.89 446.34 395.40 446.89 388.03 445.79 C 382.29 445.53 376.52 445.57 370.88 444.36 C 372.53 439.03 375.40 434.22 377.81 429.22 C 383.74 416.88 389.88 404.63 395.75 392.26 Z" />
<path fill="#231f20" opacity="1.00" d=" M 116.86 411.58 C 126.56 411.08 136.15 412.49 145.83 412.73 C 143.33 419.95 139.20 426.43 136.12 433.40 C 130.04 433.79 124.06 432.41 117.99 432.40 C 114.43 432.35 110.95 431.60 107.44 431.07 C 110.29 424.44 113.68 418.06 116.86 411.58 M 117.67 412.31 C 114.15 417.98 110.93 423.92 108.94 430.32 C 117.70 431.63 126.56 432.17 135.40 432.76 C 138.74 426.60 142.66 420.54 144.16 413.60 C 135.32 413.14 126.53 412.13 117.67 412.31 Z" />
<path fill="#231f20" opacity="1.00" d=" M 239.90 416.16 C 255.75 416.57 271.78 418.53 287.68 419.80 C 286.21 423.62 284.45 427.31 282.55 430.94 C 278.83 438.10 275.54 445.48 271.49 452.46 C 262.32 451.83 253.20 450.56 244.01 450.20 C 237.41 449.06 230.65 449.88 224.09 448.46 C 225.56 440.77 230.39 434.31 233.38 427.18 C 235.49 423.52 236.34 418.72 239.90 416.16 M 224.86 447.39 C 229.19 448.26 233.59 448.60 238.01 448.68 C 248.97 449.48 259.90 451.04 270.88 451.30 C 273.95 447.88 275.43 443.44 277.51 439.42 C 280.37 433.17 284.21 427.33 286.03 420.64 C 270.31 419.24 254.59 417.43 238.80 417.33 C 234.13 427.34 228.90 437.11 224.86 447.39 Z" />
<path fill="#231f20" opacity="1.00" d=" M 41.53 432.67 C 50.33 432.27 59.04 433.59 67.83 433.74 C 66.57 439.06 63.78 443.80 61.29 448.61 C 60.43 450.16 59.57 451.78 58.21 452.97 C 56.22 453.71 54.02 453.28 51.97 453.12 C 45.58 452.23 39.20 451.20 32.72 451.36 C 34.98 444.83 38.48 438.85 41.53 432.67 Z" />
<path fill="#231f20" opacity="1.00" d=" M 365.74 453.34 C 373.40 453.13 380.95 454.63 388.61 454.48 C 394.28 454.96 399.94 455.51 405.65 455.56 C 415.05 456.86 424.56 456.20 434.02 456.69 C 433.33 462.62 429.64 467.49 427.19 472.77 C 421.94 483.67 416.24 494.36 411.65 505.56 C 410.51 508.05 409.47 510.91 406.92 512.31 C 403.26 512.67 399.66 511.50 395.99 511.56 C 387.96 511.72 380.04 510.21 372.01 510.40 C 366.04 509.59 360.03 509.48 354.02 509.35 C 349.12 508.77 344.20 508.42 339.28 508.27 C 341.38 501.76 344.85 495.85 347.90 489.77 C 354.19 477.79 359.56 465.37 365.74 453.34 Z" />
<path fill="#231f20" opacity="1.00" d=" M 83.00 473.59 C 88.01 472.87 93.01 473.86 97.99 474.28 C 104.40 474.41 110.84 474.32 117.15 475.67 C 114.39 482.83 111.14 489.93 107.03 496.40 C 101.31 497.18 95.67 495.46 89.95 495.58 C 84.59 495.70 79.32 494.56 73.98 494.38 C 74.18 489.30 77.11 485.06 79.10 480.56 C 80.25 478.17 81.20 475.60 83.00 473.59 Z" />
<path fill="#231f20" opacity="1.00" d=" M 209.51 476.57 C 225.49 478.86 241.76 478.77 257.69 481.50 C 253.90 490.06 249.43 498.28 245.51 506.78 C 244.35 509.01 243.44 511.56 241.39 513.15 C 238.07 513.87 234.74 512.74 231.43 512.59 C 218.71 512.19 206.14 509.85 193.38 510.16 C 194.51 506.49 196.01 502.96 197.82 499.58 C 201.81 491.95 205.28 484.06 209.51 476.57 M 209.64 478.18 C 205.64 484.60 202.69 491.59 199.14 498.25 C 197.41 501.49 195.94 504.87 194.90 508.39 C 198.55 509.23 202.28 509.58 206.02 509.64 C 217.78 510.61 229.55 511.39 241.29 512.69 C 244.16 508.19 246.29 503.28 248.63 498.49 C 251.29 492.92 254.63 487.61 256.15 481.57 C 240.62 480.86 225.20 478.52 209.64 478.18 Z" />
<path fill="#231f20" opacity="1.00" d=" M 268.27 506.37 C 277.55 506.04 286.73 507.81 296.01 507.67 C 301.31 508.25 306.63 508.80 311.98 508.70 C 315.51 508.90 319.48 508.44 322.60 510.43 C 322.76 513.00 321.37 515.26 320.30 517.50 C 314.90 528.07 309.73 538.76 304.34 549.34 C 295.18 549.66 286.16 547.43 277.01 547.38 C 268.08 546.36 259.11 546.16 250.18 545.18 C 250.77 542.29 251.76 539.50 253.12 536.89 C 258.29 526.78 263.16 516.51 268.27 506.37 M 269.10 506.88 C 268.39 507.67 267.80 508.55 267.32 509.50 C 262.79 518.39 258.57 527.43 254.10 536.35 C 252.79 538.92 251.77 541.63 250.98 544.40 C 261.71 544.43 272.31 546.41 283.02 546.78 C 290.05 547.34 297.03 548.47 304.09 548.56 C 307.66 541.51 310.81 534.25 314.44 527.22 C 317.09 521.73 320.26 516.44 322.07 510.57 C 304.40 509.76 286.69 508.01 269.10 506.88 Z" />
<path fill="#231f20" opacity="1.00" d=" M 122.70 510.88 C 126.15 510.53 129.58 511.61 133.04 511.56 C 144.93 512.92 156.95 512.88 168.79 514.74 C 165.90 523.73 160.37 531.56 157.01 540.37 C 146.00 541.13 135.03 539.85 124.07 539.01 C 119.15 538.30 114.03 538.81 109.35 536.85 C 112.35 530.29 115.73 523.93 118.78 517.40 C 119.91 515.13 120.92 512.73 122.70 510.88 Z" />
<path fill="#231f20" opacity="1.00" d=" M 335.54 516.21 C 345.35 516.12 355.05 517.67 364.85 517.55 C 372.18 518.71 379.63 518.07 386.95 519.21 C 392.09 519.69 397.27 519.19 402.42 519.66 C 403.47 522.95 401.25 525.81 399.90 528.61 C 391.98 543.42 385.84 559.15 377.38 573.67 C 366.36 573.92 355.45 572.32 344.43 572.43 C 336.95 571.29 329.37 571.88 321.86 571.20 C 317.60 570.53 313.28 570.66 308.98 570.45 C 309.73 567.96 310.63 565.52 311.81 563.20 C 317.17 552.51 322.47 541.78 327.77 531.05 C 330.27 526.06 332.50 520.91 335.54 516.21 Z" />
<path fill="#231f20" opacity="1.00" d=" M 173.26 539.41 C 192.01 539.15 210.55 542.62 229.29 542.76 C 229.44 543.14 229.75 543.89 229.91 544.27 C 226.22 552.80 221.92 561.06 218.11 569.54 C 216.59 572.42 215.65 575.78 213.20 578.04 C 208.43 579.31 203.55 577.52 198.74 577.50 C 192.81 577.47 186.96 576.32 181.03 576.33 C 173.04 575.14 164.82 575.87 156.99 573.54 C 158.32 569.28 160.35 565.30 162.35 561.33 C 166.04 554.05 169.53 546.67 173.26 539.41 Z" />
<path fill="#231f20" opacity="1.00" d=" M 234.45 564.73 C 239.63 563.90 244.76 565.88 249.97 565.60 C 260.80 566.49 271.64 567.14 282.44 568.41 C 287.89 568.56 293.36 568.69 298.74 569.72 C 292.84 583.63 285.63 596.94 279.22 610.62 C 278.06 612.47 277.23 615.58 274.56 615.48 C 266.19 615.75 257.90 614.22 249.58 613.54 C 241.64 613.35 233.78 612.06 225.86 611.46 C 221.00 611.43 216.07 611.35 211.38 609.91 C 217.72 596.39 224.69 583.18 231.01 569.65 C 231.98 567.94 232.65 565.73 234.45 564.73 Z" />
<path fill="#231f20" opacity="1.00" d=" M 304.54 579.21 C 313.68 579.44 322.88 578.99 331.96 580.25 C 337.96 580.54 344.01 580.15 349.97 581.12 C 357.68 581.78 365.53 580.82 373.14 582.62 C 371.93 586.52 370.02 590.14 368.14 593.75 C 360.44 609.00 353.00 624.37 345.35 639.65 C 334.70 639.74 324.21 637.53 313.58 637.34 C 305.77 636.10 297.83 637.05 290.01 636.08 C 285.83 635.51 281.60 635.79 277.40 635.63 C 279.17 629.33 282.68 623.76 285.42 617.88 C 291.85 605.02 297.74 591.88 304.54 579.21 Z" />
</g>
<g id="#f3652fff">
<path fill="#f3652f" opacity="1.00" d=" M 192.00 134.40 C 192.76 128.53 196.11 123.54 198.83 118.43 C 205.37 118.54 212.02 117.87 218.44 119.45 C 216.32 124.56 214.70 130.16 210.94 134.35 C 204.65 134.96 198.30 134.37 192.00 134.40 Z" />
<path fill="#f3652f" opacity="1.00" d=" M 232.84 177.39 C 235.05 170.70 238.29 164.40 241.64 158.22 C 250.68 158.96 259.77 159.25 268.74 160.65 C 266.05 167.21 262.97 173.63 259.29 179.69 C 250.43 179.43 241.64 178.27 232.84 177.39 Z" />
<path fill="#f3652f" opacity="1.00" d=" M 160.85 196.51 C 162.90 191.37 165.39 186.43 167.83 181.47 C 174.50 181.40 181.17 181.38 187.83 181.62 C 185.95 187.23 183.13 192.46 180.34 197.66 C 173.84 197.45 167.21 198.19 160.85 196.51 Z" />
<path fill="#f3652f" opacity="1.00" d=" M 279.68 200.24 C 287.46 200.32 295.26 200.35 303.03 200.78 C 307.93 201.98 313.05 200.93 317.93 202.25 C 317.36 206.80 314.81 210.70 312.98 214.80 C 311.03 218.34 310.05 222.56 307.14 225.46 C 300.37 226.13 293.74 224.42 287.00 224.26 C 281.35 223.21 275.55 223.65 269.93 222.35 C 270.24 220.18 270.68 218.01 271.77 216.08 C 274.45 210.82 276.93 205.46 279.68 200.24 Z" />
<path fill="#f3652f" opacity="1.00" d=" M 210.64 221.21 C 219.56 221.30 228.43 222.40 237.25 223.60 C 235.48 230.07 232.06 235.89 229.14 241.87 C 220.14 241.35 210.98 242.38 202.12 240.36 C 204.28 233.70 207.36 227.38 210.64 221.21 Z" />
<path fill="#f3652f" opacity="1.00" d=" M 319.04 252.29 C 323.42 244.05 327.13 235.46 331.70 227.32 C 347.45 227.72 363.03 230.55 378.80 230.54 C 378.70 232.49 378.58 234.49 377.53 236.20 C 373.10 244.66 369.12 253.34 364.64 261.77 C 357.29 261.74 349.91 261.82 342.58 261.30 C 337.37 260.14 331.99 261.01 326.78 259.88 C 323.56 259.39 320.28 259.52 317.04 259.46 C 317.22 256.95 317.75 254.48 319.04 252.29 Z" />
<path fill="#f3652f" opacity="1.00" d=" M 378.36 282.52 C 382.86 273.83 386.71 264.79 391.64 256.33 C 401.08 257.71 410.63 258.14 420.13 258.86 C 428.25 260.20 436.71 258.40 444.65 260.91 C 439.85 272.02 433.83 282.58 428.86 293.63 C 427.64 295.52 426.90 299.00 424.02 298.49 C 416.02 298.00 408.08 296.67 400.06 296.39 C 391.41 295.42 382.68 295.38 374.08 294.07 C 374.08 289.82 376.64 286.24 378.36 282.52 Z" />
<path fill="#f3652f" opacity="1.00" d=" M 540.19 262.83 C 545.98 261.88 551.96 262.52 557.77 263.04 C 589.20 264.96 620.44 270.38 650.80 278.77 C 649.25 286.58 644.98 293.37 641.58 300.44 C 637.66 308.34 634.14 316.43 630.52 324.46 C 627.38 331.38 625.59 338.80 622.80 345.85 C 611.31 370.59 599.95 395.40 587.33 419.60 C 581.24 419.85 575.55 417.50 569.84 415.76 C 554.30 410.61 538.16 407.63 522.03 405.10 C 512.60 403.19 502.95 402.88 493.43 401.59 C 486.43 401.37 479.49 400.32 472.47 400.33 C 474.82 393.51 478.46 387.26 481.60 380.80 C 499.46 344.73 517.46 308.72 535.33 272.65 C 536.94 269.38 538.16 265.89 540.19 262.83 Z" />
<path fill="#f3652f" opacity="1.00" d=" M 241.94 277.14 C 244.47 272.25 246.59 267.15 249.43 262.42 C 252.30 262.51 255.20 262.41 258.05 262.94 C 262.32 263.82 266.74 263.19 271.01 264.07 C 276.29 265.04 281.81 263.81 286.97 265.61 C 286.73 267.86 286.17 270.07 285.04 272.05 C 282.11 277.55 279.66 283.33 276.20 288.54 C 269.75 288.70 263.44 287.21 256.99 287.34 C 251.04 286.10 244.88 287.05 239.00 285.41 C 239.40 282.48 240.57 279.74 241.94 277.14 Z" />
<path fill="#f3652f" opacity="1.00" d=" M 302.02 290.52 C 317.37 291.22 332.69 293.11 348.07 293.59 C 346.07 300.76 342.01 307.08 339.02 313.84 C 337.16 317.48 335.88 321.55 333.06 324.60 C 327.37 325.06 321.70 324.17 316.04 323.69 C 306.24 323.45 296.54 321.80 286.74 321.52 C 288.57 314.47 292.63 308.34 295.51 301.71 C 297.48 297.90 298.74 293.47 302.02 290.52 Z" />
<path fill="#f3652f" opacity="1.00" d=" M 361.66 317.26 C 379.49 317.65 397.22 319.84 415.03 320.61 C 412.40 328.58 407.82 335.73 404.53 343.43 C 401.82 348.50 400.18 354.39 396.00 358.50 C 391.63 358.87 387.33 357.85 382.99 357.61 C 369.94 356.86 356.95 355.37 343.91 354.40 C 345.47 348.66 348.50 343.52 351.06 338.21 C 354.58 331.22 357.64 323.98 361.66 317.26 Z" />
<path fill="#f3652f" opacity="1.00" d=" M 603.45 474.16 C 608.23 475.87 612.81 478.08 617.47 480.08 C 626.76 483.94 635.20 489.49 644.14 494.04 C 649.31 496.61 654.04 499.94 658.69 503.34 C 675.90 514.85 691.61 528.74 704.44 545.03 C 680.44 594.02 656.45 643.02 632.29 691.93 C 626.63 689.17 622.62 684.16 618.01 680.02 C 611.24 674.01 603.90 668.68 596.61 663.33 C 589.22 658.77 582.42 653.27 574.70 649.25 C 563.63 643.09 552.17 637.69 541.00 631.72 C 537.04 629.80 533.09 627.79 529.58 625.11 C 540.14 603.68 550.52 582.15 561.01 560.69 C 575.54 532.04 588.97 502.84 603.45 474.16 M 582.13 520.22 C 573.44 537.67 565.64 555.54 556.79 572.91 C 548.71 590.12 540.20 607.12 532.10 624.32 C 539.32 629.83 548.01 632.84 555.94 637.15 C 566.11 641.93 575.17 648.64 584.98 654.07 C 594.64 660.66 604.39 667.17 613.47 674.58 C 619.47 679.35 624.83 684.90 631.08 689.37 C 633.32 685.66 635.27 681.79 637.06 677.86 C 650.65 649.88 665.10 622.32 678.31 594.16 C 686.43 577.75 694.81 561.47 702.71 544.96 C 696.69 536.22 688.70 529.18 681.01 521.98 C 675.78 517.13 669.89 513.10 664.30 508.70 C 659.18 504.66 653.37 501.67 648.09 497.86 C 641.03 492.87 633.14 489.28 625.43 485.45 C 618.28 482.03 611.36 478.10 603.94 475.28 C 596.70 490.27 589.13 505.11 582.13 520.22 Z" />
</g>
<g id="#66c657ff">
<path fill="#66c657" opacity="1.00" d=" M 693.97 292.51 C 698.63 293.41 702.83 295.78 707.15 297.65 C 716.49 302.11 725.93 306.50 734.50 312.36 C 738.48 315.09 742.60 317.61 746.69 320.19 C 762.42 331.22 776.97 344.15 788.59 359.53 C 789.56 361.12 791.24 362.85 790.59 364.89 C 789.13 369.27 786.53 373.14 784.61 377.32 C 774.87 398.38 763.93 418.87 754.17 439.92 C 742.85 462.29 732.19 484.99 721.01 507.42 C 715.70 503.65 711.67 498.47 706.90 494.09 C 693.45 481.61 678.66 470.60 662.96 461.10 C 650.29 452.07 635.94 445.92 622.02 439.17 C 623.76 434.50 626.09 430.09 628.36 425.67 C 646.74 387.47 665.62 349.52 684.15 311.40 C 687.54 305.17 689.88 298.34 693.97 292.51 Z" />
</g>
<g id="#3e89d0ff">
<path fill="#3e89d0" opacity="1.00" d=" M 105.77 308.38 C 112.30 308.38 118.93 307.84 125.33 309.48 C 123.49 314.67 121.71 320.18 117.96 324.35 C 111.60 324.98 105.29 323.36 98.92 323.48 C 100.64 318.21 103.24 313.30 105.77 308.38 Z" />
<path fill="#3e89d0" opacity="1.00" d=" M 148.89 347.33 C 157.85 348.66 167.05 348.21 175.86 350.52 C 173.29 356.71 170.17 362.65 167.20 368.65 C 158.07 369.13 149.04 367.53 139.93 367.34 C 141.70 360.19 145.78 353.94 148.89 347.33 Z" />
<path fill="#3e89d0" opacity="1.00" d=" M 67.92 387.43 C 69.44 381.90 71.72 376.46 75.17 371.85 C 80.09 371.16 85.10 371.56 90.05 371.71 C 91.61 371.96 94.13 371.69 94.13 373.91 C 92.57 378.83 89.74 383.22 87.31 387.74 C 80.84 387.69 74.38 387.72 67.92 387.43 Z" />
<path fill="#3e89d0" opacity="1.00" d=" M 177.84 411.36 C 179.49 403.39 183.96 396.40 187.64 389.25 C 195.10 389.66 202.50 390.75 209.95 391.28 C 215.02 391.52 220.21 390.98 225.13 392.56 C 221.54 399.52 218.73 406.99 214.37 413.50 C 206.58 414.54 198.77 412.71 190.98 412.56 C 186.58 412.45 182.22 411.75 177.84 411.36 Z" />
<path fill="#3e89d0" opacity="1.00" d=" M 117.67 412.31 C 126.53 412.13 135.32 413.14 144.16 413.60 C 142.66 420.54 138.74 426.60 135.40 432.76 C 126.56 432.17 117.70 431.63 108.94 430.32 C 110.93 423.92 114.15 417.98 117.67 412.31 Z" />
<path fill="#3e89d0" opacity="1.00" d=" M 224.86 447.39 C 228.90 437.11 234.13 427.34 238.80 417.33 C 254.59 417.43 270.31 419.24 286.03 420.64 C 284.21 427.33 280.37 433.17 277.51 439.42 C 275.43 443.44 273.95 447.88 270.88 451.30 C 259.90 451.04 248.97 449.48 238.01 448.68 C 233.59 448.60 229.19 448.26 224.86 447.39 Z" />
<path fill="#3e89d0" opacity="1.00" d=" M 449.94 444.34 C 459.55 442.25 469.33 444.34 479.00 444.65 C 507.11 447.04 535.33 450.85 562.17 459.83 C 560.84 464.89 558.96 469.80 556.52 474.43 C 547.37 492.35 538.48 510.41 530.04 528.68 C 522.30 547.16 514.85 565.78 506.16 583.84 C 502.99 591.34 499.92 598.91 495.77 605.94 C 492.13 605.39 488.52 604.64 484.98 603.63 C 465.23 597.45 445.03 592.79 424.70 588.99 C 410.89 586.81 397.11 584.18 383.13 583.45 C 383.40 581.52 383.87 579.61 384.75 577.87 C 405.01 537.06 424.94 496.08 445.20 455.27 C 446.96 451.71 448.75 448.14 449.94 444.34 Z" />
<path fill="#3e89d0" opacity="1.00" d=" M 289.77 462.56 C 293.02 456.48 295.44 449.92 299.52 444.33 C 302.79 445.33 306.18 445.58 309.58 445.55 C 319.13 446.42 328.68 447.24 338.26 447.73 C 342.74 448.64 347.33 448.52 351.89 448.53 C 351.68 450.64 351.49 452.82 350.44 454.73 C 346.27 463.26 342.09 471.79 338.10 480.41 C 336.92 482.79 335.91 485.38 333.91 487.21 C 330.29 488.13 326.69 486.42 323.06 486.55 C 316.64 486.72 310.36 485.17 303.94 485.41 C 296.02 484.21 287.98 484.63 280.07 483.29 C 282.53 476.04 286.55 469.47 289.77 462.56 Z" />
<path fill="#3e89d0" opacity="1.00" d=" M 158.22 449.47 C 163.05 450.96 168.15 450.14 173.06 451.16 C 180.66 451.83 188.48 451.48 195.87 453.55 C 193.49 459.24 190.99 464.88 188.23 470.40 C 187.12 472.55 185.98 474.84 183.92 476.24 C 180.95 476.93 178.02 475.65 175.06 475.61 C 169.67 475.49 164.38 474.36 158.99 474.29 C 154.82 473.32 150.41 473.94 146.36 472.43 C 150.24 464.74 153.36 456.61 158.22 449.47 Z" />
<path fill="#3e89d0" opacity="1.00" d=" M 209.64 478.18 C 225.20 478.52 240.62 480.86 256.15 481.57 C 254.63 487.61 251.29 492.92 248.63 498.49 C 246.29 503.28 244.16 508.19 241.29 512.69 C 229.55 511.39 217.78 510.61 206.02 509.64 C 202.28 509.58 198.55 509.23 194.90 508.39 C 195.94 504.87 197.41 501.49 199.14 498.25 C 202.69 491.59 205.64 484.60 209.64 478.18 Z" />
<path fill="#3e89d0" opacity="1.00" d=" M 269.10 506.88 C 286.69 508.01 304.40 509.76 322.07 510.57 C 320.26 516.44 317.09 521.73 314.44 527.22 C 310.81 534.25 307.66 541.51 304.09 548.56 C 297.03 548.47 290.05 547.34 283.02 546.78 C 272.31 546.41 261.71 544.43 250.98 544.40 C 251.77 541.63 252.79 538.92 254.10 536.35 C 258.57 527.43 262.79 518.39 267.32 509.50 C 267.80 508.55 268.39 507.67 269.10 506.88 Z" />
</g>
<g id="#fbc707ff">
<path fill="#fbc707" opacity="1.00" d=" M 582.13 520.22 C 589.13 505.11 596.70 490.27 603.94 475.28 C 611.36 478.10 618.28 482.03 625.43 485.45 C 633.14 489.28 641.03 492.87 648.09 497.86 C 653.37 501.67 659.18 504.66 664.30 508.70 C 669.89 513.10 675.78 517.13 681.01 521.98 C 688.70 529.18 696.69 536.22 702.71 544.96 C 694.81 561.47 686.43 577.75 678.31 594.16 C 665.10 622.32 650.65 649.88 637.06 677.86 C 635.27 681.79 633.32 685.66 631.08 689.37 C 624.83 684.90 619.47 679.35 613.47 674.58 C 604.39 667.17 594.64 660.66 584.98 654.07 C 575.17 648.64 566.11 641.93 555.94 637.15 C 548.01 632.84 539.32 629.83 532.10 624.32 C 540.20 607.12 548.71 590.12 556.79 572.91 C 565.64 555.54 573.44 537.67 582.13 520.22 Z" />
</g>
</svg>
